{
  "label": "C",
  "source_cell_id": "two_stage_distilled_lora_6s",
  "pipeline_lane": "two_stage_distilled_lora",
  "pipeline_label": "Two-stage distilled-LoRA",
  "duration_seconds": 6,
  "frames": 144,
  "seed": 511102,
  "terminal_walk_start_seconds": 1283.131247,
  "terminal_walk_start_display": "21:23.131",
  "selection_reason": "Best completed distilled-lane diagnostic: 6s two-stage is included to answer the pipeline question; it must be checked for side-facing stride and crouch.",
  "raw_chroma_crew_clip": {
    "path": "/Users/mike/Episodes_CascadeEffects/Ep1_Challenger/production/longform_v3_20_25min/youtube/rough_assembly/living_cover_photoreal_ink_lit_ltx23_variable_duration_terminal_walk_scout_20260506T173517Z/clips/raw_chroma_crew/two_stage_distilled_lora_6s_seed511102_raw_chroma_6s.mp4",
    "sha256": "d198dc739b18372a600f38195d861e567fe90592143cbdf2c9db5687e4e7f2fd",
    "bytes": 1745359,
    "duration_seconds": 6.0,
    "width": 960,
    "height": 384,
    "codec_name": "h264",
    "pix_fmt": "yuv420p",
    "avg_frame_rate": "24/1",
    "nb_frames": "144",
    "has_audio": false,
    "ffprobe": {
      "streams": [
        {
          "index": 0,
          "codec_name": "h264",
          "codec_long_name": "H.264 / AVC / MPEG-4 AVC / MPEG-4 part 10",
          "profile": "High",
          "codec_type": "video",
          "codec_tag_string": "avc1",
          "codec_tag": "0x31637661",
          "width": 960,
          "height": 384,
          "coded_width": 960,
          "coded_height": 384,
          "has_b_frames": 2,
          "pix_fmt": "yuv420p",
          "level": 30,
          "chroma_location": "left",
          "field_order": "progressive",
          "refs": 1,
          "is_avc": "true",
          "nal_length_size": "4",
          "id": "0x1",
          "r_frame_rate": "24/1",
          "avg_frame_rate": "24/1",
          "time_base": "1/12288",
          "start_pts": 0,
          "start_time": "0.000000",
          "duration_ts": 73728,
          "duration": "6.000000",
          "bit_rate": "2323688",
          "bits_per_raw_sample": "8",
          "nb_frames": "144",
          "extradata_size": 45,
          "disposition": {
            "default": 1,
            "dub": 0,
            "original": 0,
            "comment": 0,
            "lyrics": 0,
            "karaoke": 0,
            "forced": 0,
            "hearing_impaired": 0,
            "visual_impaired": 0,
            "clean_effects": 0,
            "attached_pic": 0,
            "timed_thumbnails": 0,
            "non_diegetic": 0,
            "captions": 0,
            "descriptions": 0,
            "metadata": 0,
            "dependent": 0,
            "still_image": 0,
            "multilayer": 0
          },
          "tags": {
            "language": "und",
            "handler_name": "VideoHandler",
            "vendor_id": "[0][0][0][0]",
            "encoder": "Lavc62.11.100 libx264"
          }
        }
      ],
      "format": {
        "filename": "/Users/mike/Episodes_CascadeEffects/Ep1_Challenger/production/longform_v3_20_25min/youtube/rough_assembly/living_cover_photoreal_ink_lit_ltx23_variable_duration_terminal_walk_scout_20260506T173517Z/clips/raw_chroma_crew/two_stage_distilled_lora_6s_seed511102_raw_chroma_6s.mp4",
        "nb_streams": 1,
        "nb_programs": 0,
        "nb_stream_groups": 0,
        "format_name": "mov,mp4,m4a,3gp,3g2,mj2",
        "format_long_name": "QuickTime / MOV",
        "start_time": "0.000000",
        "duration": "6.000000",
        "size": "1745359",
        "bit_rate": "2327145",
        "probe_score": 100,
        "tags": {
          "major_brand": "isom",
          "minor_version": "512",
          "compatible_brands": "isomiso2avc1mp41",
          "encoder": "Lavf62.3.100"
        }
      }
    }
  },
  "keyed_alpha_preview_clip": {
    "path": "/Users/mike/Episodes_CascadeEffects/Ep1_Challenger/production/longform_v3_20_25min/youtube/rough_assembly/living_cover_photoreal_ink_lit_ltx23_variable_duration_terminal_walk_scout_20260506T173517Z/clips/keyed_alpha_preview/two_stage_distilled_lora_6s_keyed_alpha_preview_6s.mp4",
    "sha256": "b678b8163b95dcf91d67e178b88671e0940a8bd2ed9081d62fef9910398a6465",
    "bytes": 2033783,
    "duration_seconds": 6.0,
    "width": 960,
    "height": 384,
    "codec_name": "h264",
    "pix_fmt": "yuv420p",
    "avg_frame_rate": "24/1",
    "nb_frames": "144",
    "has_audio": false,
    "ffprobe": {
      "streams": [
        {
          "index": 0,
          "codec_name": "h264",
          "codec_long_name": "H.264 / AVC / MPEG-4 AVC / MPEG-4 part 10",
          "profile": "High",
          "codec_type": "video",
          "codec_tag_string": "avc1",
          "codec_tag": "0x31637661",
          "width": 960,
          "height": 384,
          "coded_width": 960,
          "coded_height": 384,
          "has_b_frames": 2,
          "pix_fmt": "yuv420p",
          "level": 30,
          "chroma_location": "left",
          "field_order": "progressive",
          "refs": 1,
          "is_avc": "true",
          "nal_length_size": "4",
          "id": "0x1",
          "r_frame_rate": "24/1",
          "avg_frame_rate": "24/1",
          "time_base": "1/12288",
          "start_pts": 0,
          "start_time": "0.000000",
          "duration_ts": 73728,
          "duration": "6.000000",
          "bit_rate": "2708258",
          "bits_per_raw_sample": "8",
          "nb_frames": "144",
          "extradata_size": 45,
          "disposition": {
            "default": 1,
            "dub": 0,
            "original": 0,
            "comment": 0,
            "lyrics": 0,
            "karaoke": 0,
            "forced": 0,
            "hearing_impaired": 0,
            "visual_impaired": 0,
            "clean_effects": 0,
            "attached_pic": 0,
            "timed_thumbnails": 0,
            "non_diegetic": 0,
            "captions": 0,
            "descriptions": 0,
            "metadata": 0,
            "dependent": 0,
            "still_image": 0,
            "multilayer": 0
          },
          "tags": {
            "language": "und",
            "handler_name": "VideoHandler",
            "vendor_id": "[0][0][0][0]",
            "encoder": "Lavc62.11.100 libx264"
          }
        }
      ],
      "format": {
        "filename": "/Users/mike/Episodes_CascadeEffects/Ep1_Challenger/production/longform_v3_20_25min/youtube/rough_assembly/living_cover_photoreal_ink_lit_ltx23_variable_duration_terminal_walk_scout_20260506T173517Z/clips/keyed_alpha_preview/two_stage_distilled_lora_6s_keyed_alpha_preview_6s.mp4",
        "nb_streams": 1,
        "nb_programs": 0,
        "nb_stream_groups": 0,
        "format_name": "mov,mp4,m4a,3gp,3g2,mj2",
        "format_long_name": "QuickTime / MOV",
        "start_time": "0.000000",
        "duration": "6.000000",
        "size": "2033783",
        "bit_rate": "2711710",
        "probe_score": 100,
        "tags": {
          "major_brand": "isom",
          "minor_version": "512",
          "compatible_brands": "isomiso2avc1mp41",
          "encoder": "Lavf62.3.100"
        }
      }
    }
  },
  "composited_full_frame_clip": {
    "path": "/Users/mike/Episodes_CascadeEffects/Ep1_Challenger/production/longform_v3_20_25min/youtube/rough_assembly/living_cover_photoreal_ink_lit_ltx23_variable_duration_terminal_walk_scout_20260506T173517Z/clips/composited_full_frame/two_stage_distilled_lora_6s_composited_full_frame_6s.mp4",
    "sha256": "7b93827b0dee459e397f99fa62c558166918e97c193b9ef26f25c15d45b7edd1",
    "bytes": 1857395,
    "duration_seconds": 6.0,
    "width": 1920,
    "height": 1080,
    "codec_name": "h264",
    "pix_fmt": "yuv420p",
    "avg_frame_rate": "24/1",
    "nb_frames": "144",
    "has_audio": false,
    "ffprobe": {
      "streams": [
        {
          "index": 0,
          "codec_name": "h264",
          "codec_long_name": "H.264 / AVC / MPEG-4 AVC / MPEG-4 part 10",
          "profile": "High",
          "codec_type": "video",
          "codec_tag_string": "avc1",
          "codec_tag": "0x31637661",
          "width": 1920,
          "height": 1080,
          "coded_width": 1920,
          "coded_height": 1080,
          "has_b_frames": 2,
          "pix_fmt": "yuv420p",
          "level": 40,
          "chroma_location": "left",
          "field_order": "progressive",
          "refs": 1,
          "is_avc": "true",
          "nal_length_size": "4",
          "id": "0x1",
          "r_frame_rate": "24/1",
          "avg_frame_rate": "24/1",
          "time_base": "1/12288",
          "start_pts": 0,
          "start_time": "0.000000",
          "duration_ts": 73728,
          "duration": "6.000000",
          "bit_rate": "2473066",
          "bits_per_raw_sample": "8",
          "nb_frames": "144",
          "extradata_size": 47,
          "disposition": {
            "default": 1,
            "dub": 0,
            "original": 0,
            "comment": 0,
            "lyrics": 0,
            "karaoke": 0,
            "forced": 0,
            "hearing_impaired": 0,
            "visual_impaired": 0,
            "clean_effects": 0,
            "attached_pic": 0,
            "timed_thumbnails": 0,
            "non_diegetic": 0,
            "captions": 0,
            "descriptions": 0,
            "metadata": 0,
            "dependent": 0,
            "still_image": 0,
            "multilayer": 0
          },
          "tags": {
            "language": "und",
            "handler_name": "VideoHandler",
            "vendor_id": "[0][0][0][0]",
            "encoder": "Lavc62.11.100 libx264"
          }
        }
      ],
      "format": {
        "filename": "/Users/mike/Episodes_CascadeEffects/Ep1_Challenger/production/longform_v3_20_25min/youtube/rough_assembly/living_cover_photoreal_ink_lit_ltx23_variable_duration_terminal_walk_scout_20260506T173517Z/clips/composited_full_frame/two_stage_distilled_lora_6s_composited_full_frame_6s.mp4",
        "nb_streams": 1,
        "nb_programs": 0,
        "nb_stream_groups": 0,
        "format_name": "mov,mp4,m4a,3gp,3g2,mj2",
        "format_long_name": "QuickTime / MOV",
        "start_time": "0.000000",
        "duration": "6.000000",
        "size": "1857395",
        "bit_rate": "2476526",
        "probe_score": 100,
        "tags": {
          "major_brand": "isom",
          "minor_version": "512",
          "compatible_brands": "isomiso2avc1mp41",
          "encoder": "Lavf62.3.100"
        }
      }
    }
  },
  "transition_review_clip": {
    "path": "/Users/mike/Episodes_CascadeEffects/Ep1_Challenger/production/longform_v3_20_25min/youtube/rough_assembly/living_cover_photoreal_ink_lit_ltx23_variable_duration_terminal_walk_scout_20260506T173517Z/clips/transition_review/two_stage_distilled_lora_6s_static_then_terminal_walk_review_8s.mp4",
    "sha256": "04fd41344958bc75841ecb32ca4d483a6356f9f54eced3ae8dcb1851a0ce7ae8",
    "bytes": 1926040,
    "duration_seconds": 8.0,
    "width": 1920,
    "height": 1080,
    "codec_name": "h264",
    "pix_fmt": "yuv420p",
    "avg_frame_rate": "24/1",
    "nb_frames": "192",
    "has_audio": false,
    "ffprobe": {
      "streams": [
        {
          "index": 0,
          "codec_name": "h264",
          "codec_long_name": "H.264 / AVC / MPEG-4 AVC / MPEG-4 part 10",
          "profile": "High",
          "codec_type": "video",
          "codec_tag_string": "avc1",
          "codec_tag": "0x31637661",
          "width": 1920,
          "height": 1080,
          "coded_width": 1920,
          "coded_height": 1080,
          "has_b_frames": 2,
          "pix_fmt": "yuv420p",
          "level": 40,
          "chroma_location": "left",
          "field_order": "progressive",
          "refs": 1,
          "is_avc": "true",
          "nal_length_size": "4",
          "id": "0x1",
          "r_frame_rate": "24/1",
          "avg_frame_rate": "24/1",
          "time_base": "1/12288",
          "start_pts": 0,
          "start_time": "0.000000",
          "duration_ts": 98304,
          "duration": "8.000000",
          "bit_rate": "1922869",
          "bits_per_raw_sample": "8",
          "nb_frames": "192",
          "extradata_size": 47,
          "disposition": {
            "default": 1,
            "dub": 0,
            "original": 0,
            "comment": 0,
            "lyrics": 0,
            "karaoke": 0,
            "forced": 0,
            "hearing_impaired": 0,
            "visual_impaired": 0,
            "clean_effects": 0,
            "attached_pic": 0,
            "timed_thumbnails": 0,
            "non_diegetic": 0,
            "captions": 0,
            "descriptions": 0,
            "metadata": 0,
            "dependent": 0,
            "still_image": 0,
            "multilayer": 0
          },
          "tags": {
            "language": "und",
            "handler_name": "VideoHandler",
            "vendor_id": "[0][0][0][0]",
            "encoder": "Lavc62.11.100 libx264"
          }
        }
      ],
      "format": {
        "filename": "/Users/mike/Episodes_CascadeEffects/Ep1_Challenger/production/longform_v3_20_25min/youtube/rough_assembly/living_cover_photoreal_ink_lit_ltx23_variable_duration_terminal_walk_scout_20260506T173517Z/clips/transition_review/two_stage_distilled_lora_6s_static_then_terminal_walk_review_8s.mp4",
        "nb_streams": 1,
        "nb_programs": 0,
        "nb_stream_groups": 0,
        "format_name": "mov,mp4,m4a,3gp,3g2,mj2",
        "format_long_name": "QuickTime / MOV",
        "start_time": "0.000000",
        "duration": "8.000000",
        "size": "1926040",
        "bit_rate": "1926040",
        "probe_score": 100,
        "tags": {
          "major_brand": "isom",
          "minor_version": "512",
          "compatible_brands": "isomiso2avc1mp41",
          "encoder": "Lavf62.3.100"
        }
      }
    }
  },
  "machine_motion_probe": {
    "crew_crop_motion_delta_score": 20.9198,
    "upper_body_raise_probe": {
      "upper_body_blue_pixel_counts": [
        10844,
        11583,
        12434,
        10865,
        3467,
        2745
      ],
      "max_delta_from_first": 8099,
      "machine_flag": "no_large_upper_body_raise_detected"
    },
    "squat_crouch_probe": {
      "silhouette_top_y": [
        80,
        83,
        89,
        95,
        6,
        0
      ],
      "silhouette_center_y": [
        219.476,
        219.491,
        220.675,
        221.029,
        232.041,
        240.29
      ],
      "max_top_drop_pixels": 15,
      "max_center_drop_pixels": 20.813,
      "machine_flag": "review_possible_squat_or_crouch"
    },
    "note": "Machine probes are coarse screening only; human review is authoritative."
  },
  "selected_for_full_runtime_html_proof": false,
  "selected_for_full_runtime_html_proof_status": "pending_human_review",
  "human_disposition": "defer"
}
